<svg width="47" height="47" viewBox="0 0 47 47" fill="none" xmlns="http://www.w3.org/2000/svg">
<path d="M27.4168 41.1252V35.2502C27.4168 34.2114 27.0042 33.2152 26.2697 32.4807C25.5351 31.7461 24.5389 31.3335 23.5002 31.3335C22.4614 31.3335 21.4652 31.7461 20.7307 32.4807C19.9961 33.2152 19.5835 34.2114 19.5835 35.2502V41.1252" stroke="#C58B2B" stroke-width="2" stroke-linecap="round" stroke-linejoin="round"/>
<path d="M35.25 9.7915V41.1248" stroke="#C58B2B" stroke-width="2" stroke-linecap="round" stroke-linejoin="round"/>
<path d="M7.8335 11.7502L21.7494 4.32811C22.293 4.05646 22.8924 3.91504 23.5002 3.91504C24.1079 3.91504 24.7073 4.05646 25.2509 4.32811L39.1668 11.7502" stroke="#C58B2B" stroke-width="2" stroke-linecap="round" stroke-linejoin="round"/>
<path d="M11.7498 21.5415L4.8565 25.746C4.56952 25.9208 4.3323 26.1664 4.16768 26.4593C4.00306 26.7522 3.91656 27.0825 3.9165 27.4185V37.2082C3.9165 38.2469 4.32915 39.2432 5.06367 39.9777C5.79819 40.7122 6.79441 41.1248 7.83317 41.1248H39.1665C40.2053 41.1248 41.2015 40.7122 41.936 39.9777C42.6705 39.2432 43.0832 38.2469 43.0832 37.2082V27.4165C43.0828 27.0808 42.9961 26.7509 42.8315 26.4584C42.6669 26.1659 42.4299 25.9206 42.1432 25.746L35.2498 21.5415" stroke="#C58B2B" stroke-width="2" stroke-linecap="round" stroke-linejoin="round"/>
<path d="M11.75 9.7915V41.1248" stroke="#C58B2B" stroke-width="2" stroke-linecap="round" stroke-linejoin="round"/>
<path d="M23.5002 21.5418C25.6633 21.5418 27.4168 19.7883 27.4168 17.6252C27.4168 15.462 25.6633 13.7085 23.5002 13.7085C21.337 13.7085 19.5835 15.462 19.5835 17.6252C19.5835 19.7883 21.337 21.5418 23.5002 21.5418Z" stroke="#C58B2B" stroke-width="2" stroke-linecap="round" stroke-linejoin="round"/>
</svg>
